<?xml version="1.0" standalone="no"?>
<!DOCTYPE svg PUBLIC "-//W3C//DTD SVG 20010904//EN"
 "http://www.w3.org/TR/2001/REC-SVG-20010904/DTD/svg10.dtd">
<svg version="1.0" xmlns="http://www.w3.org/2000/svg"
 width="700.000000pt" height="700.000000pt" viewBox="0 0 700.000000 700.000000"
 preserveAspectRatio="xMidYMid meet">
<metadata>
Created by potrace 1.14, written by Peter Selinger 2001-2017
</metadata>
<g transform="translate(0.000000,700.000000) scale(0.100000,-0.100000)"
fill="#000000" stroke="none">
<path d="M2399 6996 c-2 -2 -29 -7 -59 -10 -180 -22 -410 -118 -600 -254 -224
-159 -499 -481 -561 -657 -20 -57 -20 -59 -2 -77 13 -12 36 -20 69 -21 49 -3
82 1 340 47 77 13 174 27 215 31 41 4 92 9 114 11 53 5 342 5 380 0 17 -2 59
-7 95 -11 36 -3 72 -8 81 -11 9 -2 30 8 46 23 115 107 213 195 219 196 4 1 33
-69 64 -156 l57 -158 97 -44 c257 -115 463 -307 600 -557 71 -130 140 -345
162 -503 l6 -50 -31 36 c-112 130 -268 267 -401 353 -41 27 -86 56 -100 66
-55 36 -262 130 -361 164 -102 34 -212 63 -274 72 -16 3 -36 7 -44 10 -54 18
-440 26 -573 12 -421 -46 -853 -255 -1164 -563 -350 -348 -563 -844 -560
-1304 1 -85 2 -91 30 -120 24 -25 38 -31 70 -31 38 1 49 8 157 113 64 62 163
149 220 193 107 84 323 234 336 234 24 0 68 58 121 160 33 63 73 138 89 167
l28 51 35 -17 c19 -9 75 -38 123 -65 l89 -48 184 61 c101 33 194 63 206 65 13
3 86 18 163 35 77 16 164 32 194 36 30 4 63 9 75 11 97 18 544 26 704 12 112
-11 329 -45 427 -67 l80 -19 -95 -2 c-52 -1 -102 -3 -110 -5 -8 -1 -44 -5 -80
-9 -140 -13 -275 -42 -433 -93 -45 -15 -84 -27 -87 -28 -42 -13 -198 -83 -279
-126 -358 -191 -630 -470 -786 -804 -134 -289 -195 -561 -193 -864 0 -86 4
-183 9 -216 5 -33 11 -77 14 -98 17 -126 78 -314 152 -464 55 -115 88 -153
128 -153 51 0 79 66 140 320 22 94 129 378 218 580 l55 125 -37 150 c-21 83
-38 151 -37 152 1 1 35 -7 76 -18 141 -36 130 -39 175 38 202 348 500 707 787
949 108 91 358 268 366 259 2 -2 -4 -17 -12 -34 -29 -56 -143 -344 -189 -481
-58 -168 -129 -412 -122 -418 3 -3 132 -5 287 -5 338 1 329 1 326 11 -2 6 2
37 18 137 3 17 11 66 19 110 8 44 17 95 20 113 3 18 21 101 41 185 19 84 36
157 38 164 5 29 17 19 78 -64 137 -188 287 -433 381 -625 27 -54 54 -98 60
-99 7 0 21 -2 32 -4 23 -5 123 -17 143 -18 16 -1 15 -6 -7 -63 -11 -27 -31
-78 -44 -113 l-25 -63 35 -102 c32 -93 96 -327 107 -386 2 -14 7 -41 11 -60
10 -57 13 -72 20 -130 4 -30 9 -66 11 -80 2 -14 6 -56 9 -95 11 -154 17 -190
33 -217 29 -50 46 -37 95 74 83 190 168 481 183 620 3 29 7 58 9 64 7 22 19
200 19 289 0 148 -14 284 -40 400 -9 39 -18 79 -20 91 -12 64 -73 225 -125
332 -83 170 -161 282 -292 419 l-69 72 53 -20 c191 -71 407 -222 588 -412 74
-77 197 -225 245 -295 16 -23 31 -42 35 -43 3 0 13 -2 21 -4 8 -2 26 -5 40 -8
14 -3 67 -15 117 -26 51 -12 95 -21 99 -21 3 0 3 -8 0 -17 -3 -10 -8 -40 -12
-68 -3 -27 -14 -91 -23 -140 l-17 -91 60 -125 c34 -69 67 -140 74 -158 99
-231 175 -454 217 -630 18 -73 36 -122 50 -139 21 -25 24 -25 46 -10 50 32
172 325 210 503 7 33 13 62 14 65 7 29 19 103 33 210 9 71 8 467 -1 545 -39
314 -143 605 -299 833 -29 42 -98 123 -153 178 -207 210 -469 336 -825 399
-260 46 -640 35 -859 -25 -19 -5 -37 -8 -39 -5 -8 8 62 98 127 165 167 172
445 305 781 374 126 26 179 34 236 35 33 1 33 1 78 104 8 17 40 86 70 151 56
118 56 119 77 101 24 -23 74 -104 132 -216 l44 -84 374 -152 c206 -84 411
-168 456 -188 45 -19 93 -35 106 -35 44 0 63 38 73 143 6 65 -12 225 -28 245
-6 6 -8 12 -5 12 3 0 -12 50 -33 110 -121 348 -344 609 -635 746 -44 20 -89
40 -100 45 -66 24 -88 30 -165 48 -273 62 -616 38 -820 -57 -361 -168 -659
-577 -884 -1213 l-41 -116 0 216 c-1 192 -7 325 -19 386 -2 11 -7 43 -10 70
-11 77 -35 193 -57 269 -12 38 -22 76 -24 85 -6 31 -72 196 -105 261 -160 320
-392 553 -707 709 -116 58 -278 115 -391 138 -70 14 -352 29 -363 19z"/>
<path d="M3121 2795 c-8 -10 -41 -205 -57 -342 -2 -18 -6 -50 -9 -70 -5 -46
-18 -215 -19 -263 l-1 -35 370 0 370 0 -4 110 c-6 137 -4 471 2 548 3 47 1 57
-12 58 -124 6 -634 2 -640 -6z"/>
<path d="M3030 1720 c-4 -3 -6 -12 -5 -20 1 -8 5 -91 9 -185 3 -93 8 -179 10
-190 2 -11 7 -60 12 -110 4 -49 8 -93 10 -97 1 -5 2 -21 3 -37 l1 -28 460 0
c253 1 460 3 460 7 0 3 -12 39 -26 80 -24 71 -81 275 -89 323 -3 12 -9 43 -15
68 -14 57 -16 71 -26 132 -4 27 -13 51 -19 54 -17 6 -775 9 -785 3z"/>
<path d="M3130 686 c0 -15 46 -233 72 -336 16 -69 32 -132 33 -140 2 -8 11
-40 19 -70 9 -30 21 -74 27 -97 l11 -43 649 0 c403 0 649 4 649 10 0 5 -6 13
-13 17 -8 4 -44 46 -81 93 -37 47 -71 90 -76 97 -51 63 -227 362 -261 441
l-14 32 -507 0 c-280 0 -508 -2 -508 -4z"/>
</g>
</svg>
